<?xml version="1.0" encoding="utf-8"?>
<!-- Generator: Adobe Illustrator 22.1.0, SVG Export Plug-In . SVG Version: 6.00 Build 0)  -->
<svg version="1.0" id="Layer_1" xmlns="http://www.w3.org/2000/svg" xmlns:xlink="http://www.w3.org/1999/xlink" x="0px" y="0px"
	 viewBox="0 0 168.6 71.7" style="enable-background:new 0 0 168.6 71.7;" xml:space="preserve">
<style type="text/css">
	.st0{fill:#1D2634;}
</style>
<g>
	<g>
		<path class="st0" d="M14.1,0v71.7H0V0H14.1z"/>
		<path class="st0" d="M66.2,0v14.2H59c-3,0-5.8,0.6-8.4,1.7c-2.6,1.1-4.9,2.7-6.9,4.6c-2,2-3.5,4.3-4.6,6.9
			c-1.1,2.6-1.7,5.4-1.7,8.4v35.9H23.1V35.8c0-5,0.9-9.7,2.8-14c1.9-4.3,4.4-8.1,7.7-11.3c3.3-3.2,7.1-5.8,11.5-7.7
			C49.5,0.9,54.1,0,59,0H66.2z"/>
		<path class="st0" d="M88.9,0v71.7H74.9V0H88.9z"/>
		<path class="st0" d="M161.6,0v14.2h-43.3c-2,0-3.7,0.7-5.1,2.1c-1.4,1.4-2.1,3.1-2.1,5.1c0,2,0.7,3.8,2.1,5.2
			c1.4,1.4,3.1,2.2,5.1,2.2h28.8c3,0,5.8,0.6,8.4,1.7c2.6,1.1,4.9,2.6,6.9,4.6c2,1.9,3.5,4.2,4.6,6.8c1.1,2.6,1.7,5.4,1.7,8.4
			c0,3-0.6,5.8-1.7,8.4c-1.1,2.6-2.7,4.9-4.6,6.9c-2,2-4.3,3.5-6.9,4.6c-2.6,1.1-5.4,1.7-8.4,1.7h-43.1V57.5h43.1
			c2.1,0,3.9-0.7,5.3-2.1c1.4-1.4,2.1-3.1,2.1-5.3c0-2-0.7-3.7-2.1-5.1c-1.4-1.4-3.1-2.1-5.3-2.1h-28.8c-3,0-5.8-0.6-8.4-1.7
			c-2.6-1.1-4.9-2.7-6.8-4.6c-1.9-2-3.4-4.3-4.6-6.9c-1.1-2.6-1.7-5.4-1.7-8.4c0-3,0.6-5.8,1.7-8.4c1.1-2.6,2.6-4.9,4.6-6.8
			c1.9-1.9,4.2-3.4,6.8-4.6c2.6-1.1,5.4-1.7,8.4-1.7H161.6z"/>
	</g>
</g>
</svg>
